<?xml version="1.0" standalone="no"?><!DOCTYPE svg PUBLIC "-//W3C//DTD SVG 1.1//EN" "http://www.w3.org/Graphics/SVG/1.1/DTD/svg11.dtd"><svg t="1527230941278" class="icon" style="" viewBox="0 0 1024 1024" version="1.1" xmlns="http://www.w3.org/2000/svg" p-id="1493" xmlns:xlink="http://www.w3.org/1999/xlink" width="200" height="200"><defs><style type="text/css"></style></defs><path d="M801.603584 222.314496c-77.362176-77.326336-180.175872-119.909376-289.577984-119.909376-109.398016 0-212.236288 42.582016-289.598464 119.909376C145.033216 299.666432 102.4 402.555904 102.4 512.00512c0 109.469696 42.633216 212.328448 119.991296 289.675264C299.758592 879.012864 402.601984 921.59488 512 921.59488s212.241408-42.582016 289.577984-119.914496C878.997504 724.307968 921.6256 621.418496 921.6 511.9744c0.03072-109.454336-42.57792-212.307968-119.996416-289.659904zM716.848128 541.3888H541.2864v176.335872c0 16.25088-13.1072 29.3888-29.2608 29.3888-16.14336 0-29.25056-13.13792-29.25056-29.3888V541.3888H307.212288c-16.14848 0-29.25568-13.16864-29.25568-29.38368 0-16.2304 13.1072-29.39904 29.25568-29.39904H482.77504V306.276352c0-16.22016 13.1072-29.38368 29.25056-29.38368 16.15872 0 29.26592 13.16352 29.26592 29.38368v176.330752h175.557632c16.17408 0 29.25056 13.16864 29.25056 29.39904-0.001024 16.214016-13.077504 29.382656-29.251584 29.382656z m0 0" fill="#d81e06" p-id="1494"></path></svg>