<?xml version="1.0" standalone="no"?><!DOCTYPE svg PUBLIC "-//W3C//DTD SVG 1.1//EN" "http://www.w3.org/Graphics/SVG/1.1/DTD/svg11.dtd"><svg t="1527231047398" class="icon" style="" viewBox="0 0 1024 1024" version="1.1" xmlns="http://www.w3.org/2000/svg" p-id="1660" xmlns:xlink="http://www.w3.org/1999/xlink" width="200" height="200"><defs><style type="text/css"></style></defs><path d="M801.62816 222.3872C724.26496 145.01376 621.40928 102.4 512 102.4c-109.39904 0-212.26496 42.61376-289.6128 119.9872C145.00864 299.74528 102.4 402.60096 102.4 512c0 109.40928 42.60864 212.26496 119.9872 289.6128C299.72992 878.98624 402.60096 921.6 512 921.6c109.40928 0 212.26496-42.61376 289.62816-119.9872C878.99648 724.26496 921.6 621.40928 921.6 512c0-109.39904-42.60352-212.25472-119.97184-289.6128zM675.84 539.30496H348.16L358.4 460.8h307.2l10.24 78.50496z m0 0" fill="#8a8a8a" p-id="1661"></path></svg>